<?xml version="1.0" standalone="no"?>
<!DOCTYPE svg PUBLIC "-//W3C//DTD SVG 20010904//EN"
 "http://www.w3.org/TR/2001/REC-SVG-20010904/DTD/svg10.dtd">
<svg version="1.0" xmlns="http://www.w3.org/2000/svg"
 width="1024.000000pt" height="1024.000000pt" viewBox="0 0 1024.000000 1024.000000"
 preserveAspectRatio="xMidYMid meet">
<metadata>
Created by potrace 1.11, written by Peter Selinger 2001-2013
</metadata>
<g transform="translate(0.000000,1024.000000) scale(0.100000,-0.100000)"
fill="#000000" stroke="none">
<path d="M1588 10224 c-129 -31 -249 -118 -288 -209 -19 -44 -89 -460 -169
-1000 -80 -542 -139 -1031 -162 -1343 -16 -230 -7 -592 20 -747 106 -621 407
-1106 885 -1427 110 -73 328 -188 419 -219 30 -11 37 -18 37 -40 0 -14 -56
-1063 -125 -2331 -69 -1268 -125 -2354 -125 -2412 0 -81 5 -121 21 -169 50
-150 171 -268 318 -311 48 -14 147 -16 781 -16 634 0 733 2 781 16 147 43 268
161 318 311 16 48 21 88 21 169 0 59 -56 1144 -125 2411 -69 1268 -125 2317
-125 2332 0 23 7 29 63 50 106 40 277 132 397 212 511 342 827 896 901 1577
16 157 6 572 -20 832 -69 662 -270 2015 -314 2109 -31 67 -98 128 -180 166
-94 43 -156 55 -280 55 -221 0 -387 -84 -456 -230 l-26 -55 -3 -1438 -2 -1438
-35 -15 c-20 -8 -68 -14 -117 -14 -104 0 -152 20 -156 65 -1 17 -38 663 -82
1437 -88 1576 -75 1451 -164 1546 -115 123 -361 176 -569 123 -98 -26 -149
-52 -213 -113 -102 -96 -86 41 -178 -1588 l-81 -1435 -35 -18 c-48 -25 -213
-21 -253 6 l-27 17 0 1438 0 1438 -25 51 c-49 98 -152 172 -290 208 -74 19
-258 19 -337 -1z"/>
<path d="M8530 10215 c-826 -172 -1736 -1034 -2175 -2061 -109 -256 -204 -585
-247 -864 -19 -125 -22 -185 -23 -440 0 -308 5 -372 50 -595 149 -744 599
-1425 1332 -2015 l31 -25 -149 -1815 c-81 -998 -148 -1859 -149 -1913 0 -110
21 -189 71 -269 36 -56 109 -126 169 -160 100 -58 96 -58 801 -58 607 0 651 1
708 19 147 46 272 172 315 320 15 50 16 496 16 4782 0 4611 0 4729 -19 4788
-46 147 -172 272 -320 315 -84 25 -269 20 -411 -9z"/>
</g>
</svg>
